<svg id="Capa_1" data-name="Capa 1" xmlns="http://www.w3.org/2000/svg" viewBox="0 0 537.32 322.86"><defs><style>.cls-1,.cls-2{fill:#fff;}.cls-1{fill-rule:evenodd;}</style></defs><path class="cls-1" d="M336.89,146.11c37.07-5.72,66.47,14.64,77.45,32.55,7.31,12,9.05,20.69,10,28.11,14.92,116.44-157.2,116.25-148.92,5.71,1.65-22,9-32.92,15.52-41.3,9.33-12,25.45-21.91,45.94-25.07M308.6,238.73c3.2,9.66,13,21.69,23.16,25.91,26.57,11.12,51.58-4.41,59.08-24.08,13.39-35.25-11.58-71.05-45-67.28-29.92,3.35-48,33-37.2,65.45" transform="translate(-39.17 -58.14)"/><path class="cls-1" d="M576.42,293.15H545.31v-146c9.87,0,31.18,0,31.18,16,0,12-.07,130-.07,130" transform="translate(-39.17 -58.14)"/><path class="cls-1" d="M516.08,266.12h-.94l-.34,0H476.19l-.05-90.91h0V163.12c0-16-21.45-16-31.27-16v146h85c0-8.51,0-27-13.82-27" transform="translate(-39.17 -58.14)"/><path class="cls-1" d="M256.54,176.24c-11.77-27.22-41.9-31.92-67.34-31.9h-.13c-9.88,0-32,3.07-32,3.07l0,145.74c9.87,0,32,0,32-16v-.29h0V253.55c53.34,7.94,86.42-33.52,67.47-77.31m-45.09,51.55a101.68,101.68,0,0,1-22.54-.3l0-54a191.12,191.12,0,0,1,22.08.18c12.46.8,21.17,12.88,21.17,27.64s-8.78,25.24-20.73,26.49" transform="translate(-39.17 -58.14)"/><path class="cls-2" d="M146.38,73.79c-48.59,65.11-75.73,189.57-12.23,286C144,373.9,151.4,381,151.4,381,80.17,275.13,131.47,136.52,184.46,65.51l-47.55-6.12s-22.16-6.22-31.45,9.14Z" transform="translate(-39.17 -58.14)"/><path class="cls-2" d="M147.21,381c-82.8-89.28-73.46-230.83-23.57-297.67,0,0-37.24-4.44-44.49-5.2-9.08-.95-28.07-5-32.33,16.06C5.15,300.47,147.21,381,147.21,381" transform="translate(-39.17 -58.14)"/></svg>